<mxfile host="app.diagrams.net" agent="Mozilla/5.0 (Windows NT 10.0; Win64; x64) AppleWebKit/537.36 (KHTML, like Gecko) Chrome/128.0.0.0 Safari/537.36 OPR/114.0.0.0" version="25.0.3">
  <diagram id="C5RBs43oDa-KdzZeNtuy" name="Page-1">
    <mxGraphModel dx="1441" dy="884" grid="1" gridSize="10" guides="1" tooltips="1" connect="1" arrows="1" fold="1" page="1" pageScale="1" pageWidth="827" pageHeight="1169" math="0" shadow="0">
      <root>
        <mxCell id="WIyWlLk6GJQsqaUBKTNV-0" />
        <mxCell id="WIyWlLk6GJQsqaUBKTNV-1" parent="WIyWlLk6GJQsqaUBKTNV-0" />
        <mxCell id="1Uarj7Lp-eLjg_C3t7bK-6" style="edgeStyle=orthogonalEdgeStyle;rounded=0;orthogonalLoop=1;jettySize=auto;html=1;entryX=0.5;entryY=0;entryDx=0;entryDy=0;" edge="1" parent="WIyWlLk6GJQsqaUBKTNV-1" source="1Uarj7Lp-eLjg_C3t7bK-0" target="1Uarj7Lp-eLjg_C3t7bK-1">
          <mxGeometry relative="1" as="geometry" />
        </mxCell>
        <mxCell id="1Uarj7Lp-eLjg_C3t7bK-0" value="start" style="strokeWidth=2;html=1;shape=mxgraph.flowchart.start_1;whiteSpace=wrap;" vertex="1" parent="WIyWlLk6GJQsqaUBKTNV-1">
          <mxGeometry x="330" y="110" width="100" height="60" as="geometry" />
        </mxCell>
        <mxCell id="1Uarj7Lp-eLjg_C3t7bK-1" value="input n" style="shape=parallelogram;html=1;strokeWidth=2;perimeter=parallelogramPerimeter;whiteSpace=wrap;rounded=1;arcSize=12;size=0.23;" vertex="1" parent="WIyWlLk6GJQsqaUBKTNV-1">
          <mxGeometry x="330" y="220" width="100" height="60" as="geometry" />
        </mxCell>
        <mxCell id="1Uarj7Lp-eLjg_C3t7bK-9" style="edgeStyle=orthogonalEdgeStyle;rounded=0;orthogonalLoop=1;jettySize=auto;html=1;entryX=0.5;entryY=0;entryDx=0;entryDy=0;" edge="1" parent="WIyWlLk6GJQsqaUBKTNV-1" source="1Uarj7Lp-eLjg_C3t7bK-3" target="1Uarj7Lp-eLjg_C3t7bK-11">
          <mxGeometry relative="1" as="geometry">
            <mxPoint x="380" y="480" as="targetPoint" />
          </mxGeometry>
        </mxCell>
        <mxCell id="1Uarj7Lp-eLjg_C3t7bK-3" value="n&amp;lt;=0" style="strokeWidth=2;html=1;shape=mxgraph.flowchart.decision;whiteSpace=wrap;" vertex="1" parent="WIyWlLk6GJQsqaUBKTNV-1">
          <mxGeometry x="330" y="330" width="100" height="100" as="geometry" />
        </mxCell>
        <mxCell id="1Uarj7Lp-eLjg_C3t7bK-5" style="edgeStyle=orthogonalEdgeStyle;rounded=0;orthogonalLoop=1;jettySize=auto;html=1;entryX=0.5;entryY=0;entryDx=0;entryDy=0;entryPerimeter=0;" edge="1" parent="WIyWlLk6GJQsqaUBKTNV-1" source="1Uarj7Lp-eLjg_C3t7bK-1" target="1Uarj7Lp-eLjg_C3t7bK-3">
          <mxGeometry relative="1" as="geometry" />
        </mxCell>
        <mxCell id="1Uarj7Lp-eLjg_C3t7bK-10" value="false" style="text;html=1;align=center;verticalAlign=middle;resizable=0;points=[];autosize=1;strokeColor=none;fillColor=none;" vertex="1" parent="WIyWlLk6GJQsqaUBKTNV-1">
          <mxGeometry x="335" y="438" width="50" height="30" as="geometry" />
        </mxCell>
        <mxCell id="1Uarj7Lp-eLjg_C3t7bK-11" value="input i =1" style="shape=parallelogram;html=1;strokeWidth=2;perimeter=parallelogramPerimeter;whiteSpace=wrap;rounded=1;arcSize=12;size=0.23;" vertex="1" parent="WIyWlLk6GJQsqaUBKTNV-1">
          <mxGeometry x="307.5" y="480" width="145" height="60" as="geometry" />
        </mxCell>
        <mxCell id="1Uarj7Lp-eLjg_C3t7bK-12" value="i+=1; i&amp;lt;=n" style="strokeWidth=2;html=1;shape=mxgraph.flowchart.decision;whiteSpace=wrap;" vertex="1" parent="WIyWlLk6GJQsqaUBKTNV-1">
          <mxGeometry x="330" y="570" width="100" height="100" as="geometry" />
        </mxCell>
        <mxCell id="1Uarj7Lp-eLjg_C3t7bK-13" style="edgeStyle=orthogonalEdgeStyle;rounded=0;orthogonalLoop=1;jettySize=auto;html=1;entryX=0.5;entryY=0;entryDx=0;entryDy=0;entryPerimeter=0;" edge="1" parent="WIyWlLk6GJQsqaUBKTNV-1" source="1Uarj7Lp-eLjg_C3t7bK-11" target="1Uarj7Lp-eLjg_C3t7bK-12">
          <mxGeometry relative="1" as="geometry" />
        </mxCell>
        <mxCell id="1Uarj7Lp-eLjg_C3t7bK-15" value="n%i==0" style="strokeWidth=2;html=1;shape=mxgraph.flowchart.decision;whiteSpace=wrap;" vertex="1" parent="WIyWlLk6GJQsqaUBKTNV-1">
          <mxGeometry x="330" y="700" width="100" height="100" as="geometry" />
        </mxCell>
        <mxCell id="1Uarj7Lp-eLjg_C3t7bK-16" style="edgeStyle=orthogonalEdgeStyle;rounded=0;orthogonalLoop=1;jettySize=auto;html=1;entryX=0.5;entryY=0;entryDx=0;entryDy=0;entryPerimeter=0;" edge="1" parent="WIyWlLk6GJQsqaUBKTNV-1" source="1Uarj7Lp-eLjg_C3t7bK-12" target="1Uarj7Lp-eLjg_C3t7bK-15">
          <mxGeometry relative="1" as="geometry" />
        </mxCell>
        <mxCell id="1Uarj7Lp-eLjg_C3t7bK-18" value="i la uoc cua n" style="strokeWidth=2;html=1;shape=mxgraph.flowchart.display;whiteSpace=wrap;" vertex="1" parent="WIyWlLk6GJQsqaUBKTNV-1">
          <mxGeometry x="330" y="830" width="100" height="60" as="geometry" />
        </mxCell>
        <mxCell id="1Uarj7Lp-eLjg_C3t7bK-19" style="edgeStyle=orthogonalEdgeStyle;rounded=0;orthogonalLoop=1;jettySize=auto;html=1;entryX=0.5;entryY=0;entryDx=0;entryDy=0;entryPerimeter=0;" edge="1" parent="WIyWlLk6GJQsqaUBKTNV-1" source="1Uarj7Lp-eLjg_C3t7bK-15" target="1Uarj7Lp-eLjg_C3t7bK-18">
          <mxGeometry relative="1" as="geometry" />
        </mxCell>
        <mxCell id="1Uarj7Lp-eLjg_C3t7bK-20" value="true" style="text;html=1;align=center;verticalAlign=middle;resizable=0;points=[];autosize=1;strokeColor=none;fillColor=none;" vertex="1" parent="WIyWlLk6GJQsqaUBKTNV-1">
          <mxGeometry x="340" y="798" width="40" height="30" as="geometry" />
        </mxCell>
        <mxCell id="1Uarj7Lp-eLjg_C3t7bK-21" value="true" style="text;html=1;align=center;verticalAlign=middle;resizable=0;points=[];autosize=1;strokeColor=none;fillColor=none;" vertex="1" parent="WIyWlLk6GJQsqaUBKTNV-1">
          <mxGeometry x="340" y="658" width="40" height="30" as="geometry" />
        </mxCell>
        <mxCell id="1Uarj7Lp-eLjg_C3t7bK-22" style="edgeStyle=orthogonalEdgeStyle;rounded=0;orthogonalLoop=1;jettySize=auto;html=1;entryX=0;entryY=0.5;entryDx=0;entryDy=0;entryPerimeter=0;" edge="1" parent="WIyWlLk6GJQsqaUBKTNV-1" source="1Uarj7Lp-eLjg_C3t7bK-18" target="1Uarj7Lp-eLjg_C3t7bK-12">
          <mxGeometry relative="1" as="geometry">
            <Array as="points">
              <mxPoint x="210" y="860" />
              <mxPoint x="210" y="620" />
            </Array>
          </mxGeometry>
        </mxCell>
        <mxCell id="1Uarj7Lp-eLjg_C3t7bK-24" value="End" style="strokeWidth=2;html=1;shape=mxgraph.flowchart.start_1;whiteSpace=wrap;" vertex="1" parent="WIyWlLk6GJQsqaUBKTNV-1">
          <mxGeometry x="330" y="940" width="100" height="60" as="geometry" />
        </mxCell>
        <mxCell id="1Uarj7Lp-eLjg_C3t7bK-26" style="edgeStyle=orthogonalEdgeStyle;rounded=0;orthogonalLoop=1;jettySize=auto;html=1;entryX=1;entryY=0.5;entryDx=0;entryDy=0;entryPerimeter=0;" edge="1" parent="WIyWlLk6GJQsqaUBKTNV-1" source="1Uarj7Lp-eLjg_C3t7bK-12" target="1Uarj7Lp-eLjg_C3t7bK-24">
          <mxGeometry relative="1" as="geometry">
            <Array as="points">
              <mxPoint x="550" y="620" />
              <mxPoint x="550" y="970" />
            </Array>
          </mxGeometry>
        </mxCell>
        <mxCell id="1Uarj7Lp-eLjg_C3t7bK-29" value="hay nhap gia tri nguyen duong" style="strokeWidth=2;html=1;shape=mxgraph.flowchart.display;whiteSpace=wrap;" vertex="1" parent="WIyWlLk6GJQsqaUBKTNV-1">
          <mxGeometry x="30" y="510" width="120" height="60" as="geometry" />
        </mxCell>
        <mxCell id="1Uarj7Lp-eLjg_C3t7bK-31" style="edgeStyle=orthogonalEdgeStyle;rounded=0;orthogonalLoop=1;jettySize=auto;html=1;entryX=0.5;entryY=0;entryDx=0;entryDy=0;entryPerimeter=0;" edge="1" parent="WIyWlLk6GJQsqaUBKTNV-1" source="1Uarj7Lp-eLjg_C3t7bK-3" target="1Uarj7Lp-eLjg_C3t7bK-29">
          <mxGeometry relative="1" as="geometry" />
        </mxCell>
        <mxCell id="1Uarj7Lp-eLjg_C3t7bK-32" style="edgeStyle=orthogonalEdgeStyle;rounded=0;orthogonalLoop=1;jettySize=auto;html=1;entryX=0;entryY=0.5;entryDx=0;entryDy=0;entryPerimeter=0;" edge="1" parent="WIyWlLk6GJQsqaUBKTNV-1" source="1Uarj7Lp-eLjg_C3t7bK-29" target="1Uarj7Lp-eLjg_C3t7bK-24">
          <mxGeometry relative="1" as="geometry">
            <Array as="points">
              <mxPoint x="90" y="970" />
            </Array>
          </mxGeometry>
        </mxCell>
      </root>
    </mxGraphModel>
  </diagram>
</mxfile>
